<svg width="867" height="609" viewBox="0 0 867 609" xmlns="http://www.w3.org/2000/svg"><title>create-organization 2</title><defs><linearGradient x1="55.841%" y1="47.424%" x2="-26.976%" y2="-87.581%" id="a"><stop stop-color="#FFF" stop-opacity="0" offset="0%"></stop><stop stop-color="#83C8EE" offset="100%"></stop></linearGradient><linearGradient x1="-1.063%" y1="63.891%" x2="73.438%" y2="43.632%" id="b"><stop stop-color="#FFF" offset="1.14%"></stop><stop stop-color="#B5A5C1" offset="100%"></stop></linearGradient><linearGradient x1="-14.25%" y1="66.928%" x2="131.53%" y2="28.607%" id="c"><stop stop-color="#FFF" offset="1.14%"></stop><stop stop-color="#B5A5C1" offset="100%"></stop></linearGradient><linearGradient x1="13.607%" y1="61.724%" x2="68.532%" y2="44.01%" id="d"><stop stop-color="#0065FF" offset="0%"></stop><stop stop-color="#1F94FF" offset="100%"></stop></linearGradient><linearGradient x1="108.641%" y1="32.546%" x2="51.694%" y2="49.399%" id="e"><stop stop-color="#0065FF" offset="0%"></stop><stop stop-color="#1F94FF" offset="100%"></stop></linearGradient></defs><g fill="none" fill-rule="evenodd"><path d="M740.6 128c1.8-1.8 3.2-4.1 4.2-6.5.2-.6.5-1.2.7-1.8l.6-1.9c.3-1.3.6-2.6.7-3.9l.1-1v-1c0-.7.1-1.3 0-2-.1-1.3-.1-2.6-.5-3.9-.4-2.6-1.4-5-2.7-7.3.5 2.5 1 5 1.1 7.5.2 2.5.1 4.9-.2 7.4-.3 2.4-.8 4.9-1.5 7.3-.5 2.4-1.4 4.7-2.5 7.1z" fill="#000"></path><path d="M730.7 153.1l2.5 1.6" stroke="#000" stroke-width="1.5" stroke-linecap="round" stroke-linejoin="round"></path><g transform="matrix(-1 0 0 1 867 0)"><path d="M790 183.9c-18-35.3 2.4-103.2-110.1-59.1s-269.5 29.5-487.2-28.5c-131.4-35-129.8 246-9.2 347.8 120.6 101.8 250 160.3 379.3 163.9 129.3 3.6 303.3-85.8 303.3-85.8L790 183.9z" fill="url(#a)"></path><path d="M116.5 369.7h73.8" stroke="#FFE481" stroke-width="6" stroke-linecap="round"></path><path d="M430.7 407.8c1.9.1 16.4-3.3 29-3.9 2.2-.1 3.8.2 7.2-.2.3 0 .6-.1.8-.3.7-.5.7-1.5 1.8-4 1.7-4.1 3.6-7 4.4-8.1.2-.3.5-.6.9-.7 1.6-.6 6.5-2.6 6.1-4.2-.4-1.9-9.3-8.1-12.8-7.3-3.5.8-1.6.4-20.7 1.9-19.1 1.5-15 25.4-15 25.4m-53.3 71.8l28.1-1.1s5.1-.3 8 2.8c.3.3 1.4-2.6 2.2-4.9.7-2.2 1.7-3.8 1.7-3.8 1.3-.4 5.5-1.1 7-1.2 2.4-.3.1-5.5-3.4-8.1-1.3-1-3-2.2-4.5-3.3-2.8-2.1-6.4-2.9-9.8-2.5-5.2.7-14.1 1.2-26.1-.5-19.7-2.8-1.2 21.5-1.2 21.5" fill="#C89773"></path><path d="M123.8 298.8s-.1 13.5 19.8 51.6c9.9 18.8 32.8 55.5 38.7 65.4 3.8 6.3 25.9 37.9 32.6 48 5.2 7.8 19.4 17.5 32.2 19.7 12.8 2.1 147.7 2.6 147.7 2.6 12.9-35.4-6.7-42.4-6.7-42.4s-39.8-3.5-57.9-4.5c-21.6-1.2-62.7-13.6-62.7-13.6l-40-68.5-2-4.1c14.3 13.1 69.2 62.3 73 64.4 10.3 5.5 22.3 6 40.3 6 14.8.1 34.5-2.2 56.7-4.3 22.2-2.1 60.2-6.2 60.2-6.2s6.2-1.5 4.1-20.3c-2.1-18.8-20-26.6-20-26.6s-49 2.7-71.8 2.7c-10.3 0-28.5-.4-28.5-.4s-34.7-45.1-45.3-57.8c-9.5-11.3-29.4-37.2-46-61.7-3.6-5.3-6.9 4.3-6.9 4.3l-117.5 45.7z" fill="#FF813D"></path><path d="M410.2 455l11.2 15.4s-3.1.4-3.9.8c-.8.4-4.1 10.2-4.1 10.2l7.1 1.4 35.5 20.6c1.6.9 3.3-.9 2.2-2.4-7.8-11.4-23.8-34.7-24.4-35.2-.4-.3-2.5-3.5-4.6-6.6-2.5-3.7-6.8-5.7-11.1-5.1l-7.9.9zm50.3-75.8l15.1 11.5s-6 1.8-6.7 2.4c-.7.5-2.4 10.7-2.4 10.7l10.6 2.7 38.4 14.4c1.7.6 3.1-1.5 1.8-2.8-9.6-9.9-29.2-30.2-29.9-30.7-.5-.3-4.4-4.4-7.3-7.5-2.1-2.2-5.1-3.2-8-2.7l-11.6 2z" fill="#000"></path><path d="M205.7 335.2l19.7 17.9 2.3 4 40 68.5s41.4 10.6 52.3 13c10.9 2.3 57.1 4.7 57.1 4.7s-31.5 14.3-60.5 5.2c-28.9-9.1-52.4-9.1-52.4-9.1s-24 1.6-33.6-34.7c-9.6-36.2-20.6-46.1-23.7-52.9-3.1-6.9-3.2-15.5-1.2-16.6z" fill="#000" opacity=".2"></path><path d="M381 209.3c-1.1.7 127.8 0 127.8 0M340 310.9h43m12.3 0h15.5" stroke="#FFE481" stroke-width="6" stroke-linecap="round"></path><path d="M363.4 165h80.1" stroke="#F5F3F7" stroke-width="6" stroke-linecap="round" stroke-linejoin="round"></path><path d="M74.8 273.3s7-.8 16 7.6c13.4 12.5 29.2 42.6 25.9 92.2 0 0-23.5-17.9-39.1-47.2-5.4-10.3-8.9-24.5-8.8-33.4.1-13.4 6-19.2 6-19.2z" fill="#FFE481"></path><path d="M86 298.3c18.8 8.1 17 41.2 17 41.2s-25.2-20.2-17-41.2z" fill="#FFF"></path><path d="M132.6 280.1L18.1 309.6 2.3 272.9c-2.7-6.4-2.2-13.7 1.5-19.6l71.6-113.5 57.2 140.3z" fill="#ECE8EF"></path><path d="M89.9 313.7c5.5-2.4 8-8.7 5.6-14.2l-29.3-68.1c-2.4-5.5-8.7-8-14.2-5.6-5.5 2.4-8 8.7-5.6 14.2l29.3 68.1c2.4 5.5 8.7 8 14.2 5.6z" fill="#ECE8EF"></path><path d="M48.9 88.2c8.4-3.6 13.4-10.7 11.2-15.8L31.2 5.3C29 .2 20.4-1 12 2.6 3.6 6.2-1.4 13.3.8 18.4l28.9 67.1c2.2 5.1 10.8 6.3 19.2 2.7z" fill="url(#b)" transform="translate(38 218)"></path><path d="M293.8 215.9s6.9-1 16.2 7.1c13.8 12.1 30.6 41.6 28.9 91.3 0 0-24.1-17.2-40.6-46-5.8-10.1-9.7-24.3-9.9-33.1-.3-13.2 5.4-19.3 5.4-19.3z" fill="#FFE481"></path><path d="M305.8 240.6c19.1 7.5 18.3 40.6 18.3 40.6s-25.8-19.3-18.3-40.6z" fill="#FFF"></path><path d="M233.4 247.5l153.1-36.4 2.9-3.4-11.7-27.2c-4.6-10.7-13.2-19.1-24-23.4L161.3 79.7l72.1 167.8z" fill="#F5F3F7"></path>
    <path d="M230.5 250.9l155.9-39.8-11.7-27.2c-4.6-10.7-13.2-19.1-24-23.4L158.3 83.1l72.2 167.8z" fill="#ECE8EF"></path><path fill="#E7E2EB" d="M381.9 201.2l4.6 9.9-368.4 98.5-4.8-10.9z"></path><path d="M243 280.1l6.1-5.5c6.1-10.6 8.1-19.3 3.2-30.5L177.2 69.6l-18.9 13.5 84.7 197z" fill="#DFD8E4"></path><path d="M82.9 48.5s64-26.1 94.4 21L158.4 83c-6.7 3.4-75.5-34.5-75.5-34.5z" fill="#5FBAFF"></path><path d="M309 249.8c5.9-2.5 8.6-9.3 6.1-15.2l-31.4-73c-2.5-5.9-9.3-8.6-15.2-6.1-5.9 2.5-8.6 9.3-6.1 15.2l31.4 73c2.5 6 9.3 8.7 15.2 6.1z" fill="#ECE8EF"></path><path d="M52.8 94.8c9-3.9 14.4-11.5 12-17l-31-72C31.4.3 22.2-1 13.2 2.9c-9 3.9-14.4 11.5-12 17l31 72c2.4 5.4 11.6 6.8 20.6 2.9z" fill="url(#c)" transform="translate(253 147)"></path><path d="M49.8 126.4s108.4-43.3 108.5-43.3c.1 0-.7-1.9-1.2-2.9-12.8-29.6-46.9-43.4-75.9-31-21.3 9.2-44.2 47.6-31.4 77.2z" fill="#F8F6F9"></path><path fill="#F3F0F5" d="M158.4 83.1l84.6 197-113.8 40.6-79.4-194.3z"></path><path fill="#DFD8E4" d="M110.9 275.9l-52.5 60.7 4.8 11.2 57.6-47.7z"></path><path fill="#EFEBF2" d="M63.2 347.8l-6.3 1.9-4.9-11.2 6.4-1.9z"></path><path fill="#F9F8FA" d="M52 338.5l56.3-68.5 2.6 5.9-52.5 60.7z"></path><path d="M83.4 118.8c-4.8 13.9-14.3 42.2 5.6 90.6 1.5 3.5 0 7-3.6 8.1L63 224.1S37.8 176 52 125.6l29.5-11.7c.9.5 2.5 3.1 1.9 4.9z" fill="#CEC7D8"></path><path d="M253.6 164.8s-.6-9.2 12.7-14.9c13.2-5.7 19.6 1.2 19.6 1.2s-2.2 8.9-13.6 13.3c-11.5 4.5-18.7.4-18.7.4zM38 234.1s-.6-9.2 12.7-14.9c13.2-5.7 19.6 1.2 19.6 1.2s-2.2 8.9-13.6 13.3c-11.5 4.5-18.7.4-18.7.4z" fill="#F5F3F7"></path><path d="M130.8 318.6c-.9 1 6.9 2.5 21 3.7 13.8 1.2 30.8-3.3 38.6-12 4.9-5.5 12.9-3.8 23.9-10.3 10.9-6.5 13.3-18 13.3-18s-86.7 25.6-96.8 36.6z" fill="#919191" opacity=".39"></path><g fill="#177FFF"><path d="M68.2 164.9s-7-12.3-17.5-15.4c-1.9-.5-2.1-1.7-3.1-.4-4.4 5.8-3.1 20.6 2.5 43.1 7.8 31.5 19.1 62 21.2 66.4l-20.9 35.8s16 27.6 16.9 26.6c8.7-10 20.6-23 28.1-32.3 27.1-34 10.5-51.9 10.2-52.4-15.3-26-37.4-71.4-37.4-71.4z"></path><path d="M103.4 261.6c-5.2 4.5-12.7-9.4-19.1-17.7-6.4-8.3-13.1-21.8-17.1-35.5-4-13.7-10.4-27.8-6-33.8 4.4-6 5.7 2 16.4 19.1s35.5 59.6 25.8 67.9z"></path></g><path d="M94.2 115.1S61.3 132 48.8 147.6c-8.3 10.4 3.9 30.2 12.7 44.9 9.1 15.3 13.3 21.5 22.1 37.1 7 12.3 10.2 22.7 16.5 33.4 4.8 8.3 11.4 16.6 14.7 22.9 9.1 17 11.8 26.1 12.6 30 .4 1.7 1.6 3.1 3.3 3.5 6.3 1.8 22.7 4.2 46.6-9 11.5-6.4 22.8-7.2 31.3-9.8 14.3-4.5 26.8-9.6 42.6-28.1 1.5-1.7 3.5-11.6 1.7-17.3-7.3-23-40.3-67-44.5-83.9-5.3-21.1-7.3-56.7-21.2-62.6-3.7-1.6-7.8-2.5-14.3-2.9-20.7-1.4-49.2-1.3-78.7 9.3z" fill="#177FFF"></path><path fill="#F9F8FA" d="M189.3 302.9l54.3-66.8 9.8-3-57.8 67.9z"></path><path d="M216 270.1c-.3 1.3-2.9 7.2-6.2 9.8-2 1.6-10.9 5.4-18.7-3.4-.7-.7-6.8-18.5-1.3-23.3 17.9-15.5 26.2 16.9 26.2 16.9z" fill="#205FFF"></path><path d="M211.6 229.2c6.2-15.3 14-12 10.1-26.3-3.9-14.3-31.9-44-40.8-52.1-8.9-8.2-14.3-10.1-14.3-5.3 0 4.7 2.7 21.8 11.4 33.4 8.7 11.6 23 24.2 21.2 35.2-.7 4.7-1.5 9.8-1.8 16.1 0 .5-11.5-2.5-22.8-12.9-.3-.2-1 .7-1.2.8-15.2 9.1 23.9 15.8 23.8 16.3-.2 7.4.3 14 2.5 16 4.2 3.8 8.4-12.6 11.9-21.2z" fill="#000" opacity=".2"></path><path d="M214.6 211.7c-.9-1.4-46.7-49.4-48-51-10.6-12.3-21-31.9-8.7-46.4 6.5-7.7 18.3-10.4 27.8-6.2 9.9 4.5 17.7 14.3 23.5 23.3C218.4 145.5 250 194 250 194s14.4 19.3-1.6 39.1c-8.2 10.2-39.4 47.8-37.5 45.5 6.6-7.8-.1-32.9-21.1-25.7l24.8-41.2z" fill="#177FFF"></path><path d="M253.4 233.1L195.6 301l4.8 11.2 43.8-38.5c11.6-10.1 15.3-26.5 9.2-40.6z" fill="#DFD8E4"></path><path fill="#EFEBF2" d="M200.4 312.2l-6.3 1.9-4.8-11.2 6.3-1.9z"></path><path d="M187.8 305.7l12-5.2c2.5-1.1 3.7-4 2.6-6.5l-21-48.8c-1.1-2.5-4-3.7-6.5-2.6l-12 5.2c-2.5 1.1-3.7 4-2.6 6.5l21 48.8c1 2.5 4 3.6 6.5 2.6z" fill="url(#d)"></path><path d="M167 270.1l-.8-1.9c-3 2.3-2.9 5.3-2.8 6.6.5 3.9 4.7 4.4 4.7 4.4s-1.9 1.1-1.2 3.9c.9 3.5 3.8 3.7 3.8 3.7-1.3 5.3 3.8 6.3 3.8 6.3-.6 2.3 1.6 3 3.4 2.9 1.7.6 16-3.2 16-3.2s2.1-2.3 6.2-8.4c1.3-2 2.8-4.7 4.8-9.7.2-.5.6-1.5.9-2.7.8-2.7 6.7-7.7 5.9-9.1-1-2.3-2.1-4.8-4.3-6.8-3.1-2.7-5.2-3.4-7.8-4 0 0-7.1 2-8.1 2.1-.8.1-4-.1-6.2.7 0 0 1.3 3.1 1.1 3.2-2.9 2.5-6.1 5.3-6.1 5.3-1.3.8-11.2 5.7-13.3 6.7z" fill="#C89773"></path><path d="M179.7 274.2c.6.3-8.2 3.9-11.5 4.9 0 0-1.4-.2-2.7-1 .1 0 1.8.1 3.3-.3 1.9-.4 3.8-1.3 4.9-1.6 2.2-.6 5.7-2.2 6-2zm4.5 7.1c.2.2-8.5 3.9-13.3 5.4 0 0-1.6 0-2.6-1.3.1.2.7.7 3.2-.1 2.9-.9 4-1.2 6.7-2.4 2.7-1.1 3.9-1.8 5.1-1.8.1.1.8.2.9.2zm2.1 7.8s-7.8 2.9-11.7 4c0 0-.8-.1-1.9-.8 0 0 1 .1 2.7-.4 1.7-.5 3-.7 4.8-1.4 1.8-.7 4-1.5 4.3-1.6 1.6-.3 1.8.2 1.8.2z" fill="#BB7F53"></path><path d="M67.2 321.1s3-1.5-.6-15.9c-2.6-10.3-12.5-13.8-16.2-10.9-.7.5.6 5.4.9 6.1 3.6 8.5-7.9 15.2-.3 18.1 7.5 2.9 13.8 4.6 16.2 2.6z" fill="#205FFF"></path><path d="M51 339.9l10.3-4.4c2.5-1.1 3.7-4 2.6-6.5L45 285c-1.1-2.5-4-3.7-6.5-2.6l-10.3 4.4c-2.5 1.1-3.7 4-2.6 6.5l18.9 44c1.1 2.5 4 3.7 6.5 2.6z" fill="url(#e)"></path><path d="M60.5 321.1l6.5-13.9c-.8-2.1-1.5-5.2-2.9-7.6-1.6-2.8-5.3-5.2-5.4-5-1.6 1.9-4.3 3.6-4.5 3.6-2.4.3 1.4 11.2 1.5 11.7.1.4 3.3 7.8 4.8 11.2z" fill="#C89773"></path><path d="M58 313.9c.3-7.9-.2-12.5-2-14.5-1.9-2-6.8-2.8-7.9-2.4-1.2.4-2.1 2.3-3.3 4.1-.5.8-.7 2.3-.6 3.2l.9 5.4c.1.4.4.6.8.5 1.1-.2 2.8-.7 3.2-2.2.3-1.3.9-2.6 1.2-3.4.1-.2.2-.5.5-.2 1.5 1.1 4.1 3.2 5 5.5l2.2 4z" fill="#C89773"></path><path d="M176.9 219.7c.5.5-9-9-10.9-13.9-1.9-4.9-2-9-.9-9.8 1.2-.8 2.3-1.6 2.3-3.1 0-2.6-8.1 4.8-8.1 4.8s10.8 15.7 17.6 22z" fill="#000" opacity=".2"></path><path d="M76 122.3c-3.7 13.5-11.2 40.8 8.9 89.2 1.5 3.5.3 6.9-2.9 7.8l-20 5.6s-22.9-44.8-15.2-91.7c.6-3.5 2.9-6.5 6.3-7.8l20.9-8.2c.8.4 2.4 3.3 2 5.1z" fill="#CEC7D8"></path><path d="M74 117s-20.5 35.7 9.4 101.7l-22.8 7.8s-25.4-46.8-14.4-93.1c.9-3.8 3.7-6.9 7.3-8.3L74 117z" fill="#E3DCE8"></path><path d="M76.9 118.5s.9 3.5 1.2 4.5l-4.2-1.6s.2-.4.3-.7c.4-.6 1.3-1.1 2.7-2.2z" fill="#ECEDF7"></path><path d="M159.4 197.8s19.3 30.8 41.3 37.5c-3.2 5.1-7.5 11.3-7.5 11.3s-26.5-8.9-49-44.1l15.2-4.7zm-80.9 22.5s10.9 19.4 13.4 24.1c2.5 4.7 11.5 24 11.5 24s-16.1-13.7-19.6-18.2c-4.8-6.1-18.2-25.5-18.2-25.5l12.9-4.4z" fill="#8DCEFF"></path><path d="M254 264.3c-.6.4.2 11.1-9.9 20.3-6.6 6.1-13.9 8.4-19.7 9.9 0 0 5.5-2.5 12.7-8.2 3.5-2.7 7.2-6.5 11.4-10.9 3-3.2 4.4-8.1 4.9-11.8l.6.7z" fill="#919191" opacity=".39"></path><path d="M167.9 105.7c.3-.5-11.2-.5-11.2-.5s-6.8 35.4 6 69.6c0 0-9.7-45.3 5.2-69.1zm-86.5 16.5s-5.4 3.4-6.4 4.1c-.2.1-1.2 5.3-1.3 5.4-2.9 12.1-3 29.2-.3 42.1-.2-1.3-.4-39.8 8-51.6zM71.3 258.6c5.5-.5 8-.8 10.1-1.6 2-.7-7.1 7.2-14 14.3-7 7.1-12.4 15.4-12.4 15.4l16.3-28.1z" fill="#000" opacity=".2"></path><path d="M56.4 296.6s2.1-2.2 2.3-2.1c1.1.3 3.6 2 5.5 5.1 1.9 3.1 2.9 7.6 2.8 7.5-4-9.7-9.6-10.3-10.6-10.5z" fill="#BB7F53"></path><path d="M220.2 267.5c1.1-1.1 26.3-31.4 26.3-31.4s12.2-12.9 9.1-28c-.4-1.9-.8-3.9-1.4-5.7-4.2-12.3-12.8-21.3-12.8-21.3s17.7 20.5 5.3 45.1c-12.5 24.7-26.5 41.3-26.5 41.3zm-19.7 44.4s22.7-20.9 37.5-36.7c14.9-15.8 16.6-27.5 15.8-41 0 0 5.6 13.3.6 25.7-7.6 18.5-50.1 48.1-53.9 52zm11.2-33.8s7.5-16.6-8.6-25c0 0 9.3 2.2 12.1 11.8 1.8 6.1.6 8.3.6 8.3l-4.1 4.9zM63.2 347.8s57.1-46.7 57.6-47.7-.9-4-1.5-6.1c.2 1.5-51.4 48.5-56.1 53.8z" fill="#FFE481"></path><path d="M104.5 270.5c14.2 18.5 23 45.5 23 45.5s-.4-27.9-23-45.5zm150.9-31.4c0 .3 1.1 6.9 1.1 6.9l28.3-8s2.7 5.8 9.7 6.3c0 0 1.4 6.5 10.1 6.7 8.7.2 14-10.3 10.5-16.4 0 0 1.8.3 3-5.4l68.4-18.1-2.6-5.7-67 17.3s-.1 5.8-14.9 10.7c-14.6 4.8-19.8-1.3-19.8-1.3-.4 0-26.8 7-26.8 7zm-33.7 26.7c-.2-.7-1.5-14.7-12.5-19 0 0 12.2 1 14.9 15.9l-2.4 3.1z" fill="#FFE481"></path><path d="M160.7 90.1c-4.8 13.9-13 49.8 6.9 98.3 1.5 3.5 0 7-3.6 8.1l-22.4 6.6s-28.7-54.1-8.9-107.3l24.5-10.1c.5-.2.9-1 1.4-.9 1 .4 2.7 3.5 2.1 5.3z" fill="#CEC7D8"></path><path d="M158.6 84.8s-23.4 45.3 6.6 111.2l-27.2 8.3S108 150.2 127.8 97l30.8-12.2z" fill="#E3DCE8"></path><path d="M160.6 88.4l.5 4.7c.4 3.9 1.5 7.7 3.3 11.1l.6 1.1-8.3-.1s3.6-16.2 3.9-16.8z" fill="#ECE7F0"></path><path d="M93.4 247.2c-.2-.6-9.5-22.3-9.9-24-.5-1.7 3.3-3.9 2-9.2 0 0 .3 2.3-2.2 4.6-.5.5-4.8 1.6-4.8 1.6l14.9 27z" fill="#000" opacity=".2"></path><path d="M121.8 121.7s0-13.5 2.2-21c.7.5 2 1.4 2 1.4s-2.8 7.9-4.2 19.6z" fill="#EDEFF8"></path><path d="M63.4 104.5c.3.7 11.3 17.5 12.9 29.4.7 4.7.7 6.2.7 7.2 0 .1 9.1 2.4 13.3 1.7 7.4-1.3 15.3-4.1 21.4-8.6 2.9-2.2 6.1-4.7 7.5-8.1 1.5-3.8 1.7-8.1 1.2-12-.5-3.8-4-2.1-6.3-3.9-7.3-5.7-7.5-11.3-11.9-19.4-4.3-7.9-8.3-16-11.7-24.4-5.6-13.4-40.8 5.9-27.1 38.1z" fill="#C89773"></path><path d="M65.3 106.5s1.9 10 2 12c0 0 25.8-5.3 32.9-29.3l-34.9 17.3z" fill="#E0A762"></path><path d="M77.2 76.3c1.1-.8 2.5-1.4 3.5.8m-15.3-8s3.2.4 5.5-.4m-18.8 4.6s-.1 2.5-1.5 3.4M67.1 94s3.5.8 6.5-2.5" stroke="#F2B893" stroke-linecap="round" stroke-linejoin="round"></path><path d="M66.6 106.3c-.8.1-16.6-6.4-18.2-8.4-1.6-2-11.6-25-11.6-25s-8.5-19.7-2.9-28.4S51.5 25.8 62 24.7c10.5-1.1 27.3-1.2 34.3 15.7 3.6 8.7 1.8 21 1.8 21 .1.9-2.4 4.9-1.7 7.8.3 1.1 2.1 3.8 2.3 5.8.4 5.3 1.8 11.4 2.5 14.6 1.9 8.2-34.6 16.7-34.6 16.7z" fill="#C89773"></path><path d="M87.3 56.6s3.9 9.8-.1 18c0 0-4.9 8.2-16.6 13.3-11.7 5.1-22.1 10-22.1 10s6.7 10.9 10.2 14.8c7.2 8 15.5 10.3 28.7 3 9.7-5.4 16.4-16.8 17.1-23.7.5-5.2-5.1-18.3-8.4-26.2-1.4-3.3-2.9-8.3-2.9-8.3l-5.9-.9z" fill="#000"></path><ellipse stroke="#000" stroke-width="1.5" transform="rotate(-21.457 68.613 67.692)" cx="68.613" cy="67.692" rx="6.8" ry="10.5"></ellipse><ellipse stroke="#000" stroke-width="1.5" transform="rotate(-23.56 49.394 77.58)" cx="49.394" cy="77.58" rx="6.3" ry="10.3"></ellipse><path d="M54.9 74.4s2.2-4.9 7.9-3.8m10.8-6L92.9 57" stroke="#000" stroke-width="1.5"></path><path d="M59.1 317.9s.5-2.7-1.2-7.3-5.7-5-5.7-5l2.8 3.2 4.1 9.1z" fill="#BB7F53"></path><path d="M209 257.7s2.9 4 2.9 5.6c0 1.1-3.4 4.6-5.1 7-1.2 1.7-.9 2.2-1.4 3.4 0 0-.2-8.4-2.4-12.1-3.1-5.1-4.6-8.4-5.7-8.8.4.1 1.2-.5 2.5-.7.7-.1 6 1.8 9.2 5.6z" fill="#BB7F53" opacity=".3"></path><path d="M425.5 366.9s-20.3 10.7-44.5 12c-24.2 1.2-25.1-5.2-37.7-3.6-11.4 1.4-25.1 4.6-35.4-17.6-10.2-22.2-20-34.9-30.9-43.4-9.6-7.4-27.6-25-32.3-40.5 0 0 2.8-3.1 5.2-6.3 2.8-3.8 4.9-8.9 4.9-8.9l30.1 40.4 54.7 69.3 37.5.5 48.4-1.9z" fill="#000" opacity=".2"></path><path d="M398.4 456.5s1.8 10.3-.5 19.5c0 0 6.7-14.1 5.5-19.5h-5zm58.5-73.4s7.7 11.6 8.4 20.6l-4.9.2s1-13.2-3.5-20.8z" fill="#BB7F53" opacity=".3"></path><path d="M59.6 101.6c-.7-1.2-.7-2.8 1-3.5 1.9-.9 4.1-1.3 6.6-2.4 2-.8 3.9-1.9 5.6-3.1 4.5-3.2 5.9.5 5.6 2.2-.2 1.5-2.5 5.6-7.5 7.4-6.8 2.4-9 2.2-10.9-.1-.2-.2-.3-.3-.4-.5z" fill="#C89773"></path><path d="M88.3 59.8s-1.4-7-5-8.1c-3.6-1.1-9.9-2.1-11.2-6.3 0 0-3.4-9.3-13.5-7.2-5.6 1.2-10.2 10-18.9 9.7-10.7-.3-6.9 6.1-7.7 8.4 0 0-4.2-15.4 7.9-22.1 12.1-6.8 16.6-17 29.6-15.6 13 1.4 14.1 2.3 20.1 6.9 6.1 4.7 12.4 28.3 10.7 33-1.6 4.7-3.1 6.2-3.1 6.2l-1.8 1.4s6.1-11.6 0-13c-5.9-1.4-1.7 6.8-1.7 6.8l-5.4-.1z" fill="#000"></path><path d="M31.9 55.2s-6.4-23.1 4.4-36c0 0-.5 7.4 3.1 7 3.6-.4 6.2-10.8 15.8-15.9 9.6-5.1 13.1-2.5 18-7.3.6-.3.1 4.9-3.4 7.5-3.5 2.6 16.5-2.7 20.3-9.7 0 0-1.8 11.8-3.5 14.1 0 0 4.1.9 6.3-5.6 0 0 3 5.3 1.6 14.1-1.1 7 5 19.4 4 24.2 0 0-9.4-.3-16.1-3.9-6.7-3.6-16.5-11.9-23.5-9.9s-16.8 7-20.7 8.7c-3.9 1.8-7.3 7.6-6.3 12.7z" fill="#000"></path><path d="M96.6 48.3c-2.1-2.1-3.7-4.7-4.5-7.6-.8-2.9-.6-6.2.7-9.1.6-1.5 1.4-2.6 1.9-3.9.3-.6.5-1.3.7-2 .2-.7.4-1.3.5-2 .6-2.7.7-5.6 0-8.4 1.4 2.6 1.7 5.7 1.4 8.7-.2 1.5-.5 3-1 4.4-.5 1.4-1.2 2.8-1.7 4-1 2.5-1.3 5.2-.8 8 .3 2.6 1.5 5.2 2.8 7.9z" fill="#000"></path></g><path d="M774.7 49.3c-1.5-1.9-2.5-4-3.2-6.2-.7-2.1-1.2-4.5-2-6.9-.7-2.3-1.8-4.6-3.4-6.6-1.6-1.9-3.6-3.5-5.8-4.5 1.8 1.6 3.4 3.3 4.6 5.3.6 1 1.1 2 1.6 3.1.4 1.1.8 2.2 1.1 3.3l1 3.4c.3 1.1.7 2.4 1.2 3.5 1.1 2.3 2.7 4.4 4.9 5.6z" fill="#000"></path><path d="M835.2 309.8c-.6-.3-5.6-2-7.3-2.8-2.8-1.3-5.7 2.7-2.1 5.2 3.9 2.7 6.2 3.8 9.2 4.5 2.6.7 5.9-4.1.2-6.9zM832 316c-.5-.3-5.2-2.1-6.8-2.9-2.5-1.2-4.9 2.4-1.7 4.6 3.4 2.4 5 3.9 8.3 4.6 2.4.6 5.9-3.4.2-6.3z" fill="#C89773"></path><path d="M828.7 321.3c-.5-.2-4.9-2.2-6.4-2.9-2.3-1.1-5 2.2-2 4.3 3.3 2.2 4.3 2.7 7.3 4 2.3 1.1 5.9-3 1.1-5.4zm-2.8 4.7c-.4-.2-2.7-1.2-4-1.8-2.1-.9-4.2 2-1.6 3.7 2.8 1.8 3.3 2.4 5.4 3.1 1.8.7 4.4-3.1.2-5z" fill="#C89773"></path><path d="M828.7 326.8l-8.3-4s4.9 3.9 8.3 4zm3.5-4.4c.1 0-2.2-.5-4.2-1.4-1.9-.8-4.9-3.6-4.9-3.6s7.7 4.6 9.1 5zm3.7-5.8s-1.7.2-3.9-.6-6.2-3.8-6.2-3.8 7 3.8 10.1 4.4z" fill="#BB7F53"></path></g></svg>